<svg xmlns="http://www.w3.org/2000/svg" xmlns:xlink="http://www.w3.org/1999/xlink"
  viewBox="308.92 273.39 1414.43 463.12">
  <path fill="#FDFDFD"
    d="M942.639 599.89C948.024 601.229 953.756 604.02 958.232 607.335C964.882 612.259 967.116 617.645 968.166 625.577C972.327 620.196 977.055 615.037 982.576 611.03C988.429 606.782 995.736 603.539 1003.11 604.896Q1004 605.062 1004.88 605.315Q1005.75 605.569 1006.59 605.908Q1007.44 606.247 1008.25 606.668Q1009.05 607.089 1009.81 607.588Q1010.57 608.087 1011.28 608.658Q1011.99 609.23 1012.63 609.869Q1013.28 610.509 1013.86 611.209Q1014.44 611.909 1014.95 612.663C1017.16 615.901 1018.05 619.153 1017.34 623.024C1013.06 629.255 1004.33 624.378 997.821 626.414C980.225 631.919 971.304 648.16 963.527 663.482C956.459 678.544 953.296 695.529 945.978 710.196C944.68 712.797 944.058 713.908 941.315 714.844C936.546 714.387 929.725 710.225 926.24 706.969C923.034 703.973 920.881 700.406 920.814 695.944C920.6 681.8 932.9 647.742 936.634 631.559C938.759 622.352 937.222 612.245 939.655 603.409C939.974 602.25 941.766 600.799 942.639 599.89Z"></path>
  <path fill="#FDFDFD"
    d="M811.38 528.183Q813.35 528.2 815.315 528.348C822.447 528.918 828.343 532.47 832.907 537.898C836.518 542.193 839.104 548.113 838.484 553.81C838.056 557.746 836.124 561.841 832.974 564.295C827.127 563.809 823.371 557.853 817.63 556.416C814.653 555.671 811.749 556.222 809.15 557.773C795.425 565.961 790.784 591.48 786.928 605.747C789.751 605.998 792.582 606.243 795.374 606.739C800.967 607.732 810.33 609.744 813.671 614.611C813.652 616.74 813.8 617.324 812.454 619.088C805.72 627.911 788.482 629.262 778.327 630.499C767.692 660.558 761.326 692.805 753.895 723.778C752.997 727.735 752.465 732.48 749.656 735.557C747.101 736.603 745.621 736.877 742.887 735.966Q742.346 735.786 741.815 735.579Q741.283 735.372 740.762 735.14Q740.242 734.907 739.733 734.65Q739.224 734.392 738.729 734.11Q738.233 733.828 737.752 733.521Q737.271 733.215 736.806 732.886Q736.34 732.557 735.891 732.205Q735.443 731.853 735.012 731.48Q734.581 731.107 734.168 730.713Q733.756 730.319 733.364 729.905Q732.971 729.491 732.599 729.059Q732.228 728.627 731.877 728.177Q731.527 727.727 731.199 727.26Q730.872 726.794 730.567 726.312Q730.263 725.829 729.982 725.333Q729.702 724.837 729.446 724.327C726.816 719.146 726.08 713.375 726.653 707.639C728.378 690.376 744.655 650.835 751.015 631.703C745.786 631.311 740.315 631.436 735.909 628.237C732.023 625.416 727.197 621.031 726.716 615.91Q726.689 615.59 726.695 615.27Q726.702 614.949 726.741 614.63Q726.78 614.312 726.853 614Q726.925 613.687 727.029 613.384Q727.133 613.08 727.268 612.789Q727.403 612.498 727.568 612.223Q727.732 611.947 727.924 611.691Q728.116 611.434 728.334 611.198C733.894 605.195 749.307 606.554 757.075 606.094C760.889 593.215 765.526 580.006 771.715 568.087C780.345 551.465 792.772 534.082 811.38 528.183Z"></path>
  <path fill="#FDFDFD"
    d="M1366.8 589.495C1367.03 589.457 1367.26 589.413 1367.5 589.381C1371.45 588.852 1377.19 590.474 1380.24 593.05C1383.23 595.574 1384.44 599.438 1384.75 603.217C1385.43 611.7 1380.37 631.753 1374.73 638.299C1375 638.122 1375.27 637.939 1375.55 637.77C1387.49 630.528 1395.88 616.58 1407.06 607.777C1413.56 602.657 1421.47 599.073 1429.92 600.228C1434.35 600.834 1438.06 603.2 1440.66 606.815C1453.21 624.308 1442.24 666.614 1442.1 687.718C1442.05 693.855 1445.74 702.183 1444.63 707.964C1444.18 710.278 1441.66 712.837 1439.75 714.119C1436.03 716.626 1431.29 717.664 1426.87 716.681C1409.93 712.91 1413.75 689.325 1406.78 678.494C1407.31 677.698 1407.72 676.896 1408.06 675.998C1411.19 667.743 1416.09 637.299 1412.44 629.246C1411.64 632.791 1393.4 651.253 1389.96 655.812C1380.93 667.787 1374.14 681.182 1368.05 694.833C1365.66 700.193 1364.26 708.003 1360.66 712.552C1359.05 714.58 1356.7 716.24 1354.06 716.452C1351.24 716.678 1348.75 715.223 1346.7 713.437C1340.72 708.236 1335.94 698.399 1335.61 690.475C1334.91 673.567 1354.61 626.931 1361.13 609.486C1363.18 604.025 1367.36 595.784 1366.86 590.022C1366.85 589.846 1366.82 589.671 1366.8 589.495Z"></path>
  <path fill="#FDFDFD"
    d="M 863.305 595.183 C 864.398 595.066 865.493 594.991 866.592 594.958 C 867.691 594.925 868.789 594.933 869.886 594.982 C 870.984 595.031 872.079 595.122 873.17 595.255 C 874.261 595.387 875.345 595.56 876.423 595.774 C 877.501 595.989 878.569 596.243 879.628 596.538 C 880.687 596.833 881.733 597.168 882.766 597.542 C 883.799 597.916 884.817 598.328 885.819 598.779 C 886.821 599.23 887.805 599.719 888.77 600.244 C 897.654 605.173 903.539 613.49 906.284 623.177 C 911.706 642.306 905.18 663.03 895.639 679.711 C 886.059 696.458 873.275 709.721 854.243 714.899 C 846.391 715.46 839.907 714.82 832.514 711.782 C 823.589 708.115 816.843 701.153 813.257 692.218 C 807.017 676.668 810.543 658.524 817.031 643.649 C 826.166 622.709 841.661 603.671 863.305 595.183 Z M 838.02 667.565 C 836.601 672.855 834.408 680.573 837.283 685.663 C 838.325 687.51 840.663 688.91 842.734 689.347 C 845.239 689.875 847.516 689.32 849.914 688.616 C 865.608 679.741 878.168 665.964 882.974 648.254 C 884.482 642.697 885.307 636.533 882.265 631.329 C 879.607 626.781 875.006 624.173 869.965 623.057 C 869.71 623 869.453 622.954 869.197 622.902 C 853.617 631.909 842.611 650.452 838.02 667.565 Z"></path>
  <path fill="#FDFDFD"
    d="M 573.345 598.267 C 581.783 597.262 591.435 597.664 599.014 601.813 C 604.562 604.851 609.486 610.178 611.113 616.393 C 612.642 622.233 611.05 628.188 607.96 633.233 C 598.131 649.283 572.548 665.274 554.395 669.376 C 545.717 671.337 541.117 670.47 533.701 665.725 C 533.158 667.638 532.668 669.564 532.232 671.503 C 531.071 676.648 529.062 684.652 532.396 689.259 C 534.218 691.776 537.395 692.802 540.366 693.085 C 547.126 693.729 554.36 691.492 560.83 689.776 C 590.649 681.867 615.766 668.418 639.767 649.231 C 641.868 640.518 643.009 608.82 646.679 604.05 C 648.186 602.091 649.967 600.994 652.478 600.894 C 657.581 600.69 663.274 605.359 666.635 608.718 C 672.581 614.66 673.195 617.743 673.215 625.84 C 678.399 619.462 683.265 613.409 690.306 608.918 C 696.15 605.189 702.799 603.303 709.657 604.941 C 713.872 605.948 721.67 609.701 723.948 613.473 C 723.972 614.385 724.229 615.688 723.778 616.479 C 721.076 621.222 712.991 622.404 708.085 623.739 C 707.459 623.954 706.837 624.177 706.225 624.431 C 682.676 634.213 669.921 665.453 662.016 687.759 C 659.561 694.688 657.79 702.382 654.708 709.037 C 653.413 711.834 652.31 712.447 649.531 713.539 C 641.011 713.136 633.101 705.475 627.52 699.563 C 629.715 689.108 633.002 678.932 636.118 668.725 C 611.775 688.767 579.758 711.132 548.231 717.148 C 537.079 719.276 525.181 718.754 515.585 712.063 C 508.457 707.093 504.136 699.61 502.624 691.124 C 499.225 672.045 507.534 650.018 518.356 634.567 C 531.314 616.068 550.953 602.168 573.345 598.267 Z M 570.163 627.257 C 568.55 628.123 566.967 629.039 565.412 630.005 C 563.857 630.972 562.335 631.987 560.846 633.051 C 559.356 634.114 557.902 635.224 556.483 636.381 C 555.064 637.537 553.684 638.737 552.341 639.982 C 550.998 641.226 549.697 642.512 548.437 643.839 C 547.176 645.166 545.959 646.533 544.786 647.938 C 543.613 649.343 542.485 650.783 541.404 652.26 L 542.258 654.071 L 543.366 653.969 C 551.987 649.512 574.439 635.088 577.778 626.109 L 576.532 624.744 L 575.079 624.817 C 573.414 625.578 571.776 626.392 570.163 627.257 Z"></path>
  <path fill="#FDFDFD"
    d="M 1597.14 676.127 C 1584.96 689.943 1553.48 705.72 1535.91 713.189 C 1522.98 718.682 1504.4 725.166 1490.73 719.386 C 1483.14 716.179 1476.91 709.416 1473.96 701.764 C 1468.73 688.189 1472.51 672.23 1478.25 659.406 C 1486.83 640.226 1520.43 597.79 1540.44 590.483 C 1546.98 588.097 1553.42 588.919 1559.6 591.912 C 1569.6 596.749 1579.66 607.198 1583.13 617.951 C 1584.45 622.035 1584.71 626.673 1582.65 630.562 C 1580.87 633.912 1577.28 636.423 1573.69 637.486 C 1562.93 640.67 1562.67 624.876 1555.17 620.878 C 1552.49 621.007 1550.71 622.288 1548.66 623.895 C 1533.54 635.719 1508.29 667.554 1506.16 686.878 C 1505.82 689.965 1506.37 691.893 1508.34 694.367 C 1510.68 695.86 1512.58 696.443 1515.36 696.515 C 1534.03 696.997 1589.02 669.325 1601.49 656.512 C 1601.71 656.292 1601.91 656.065 1602.12 655.841 C 1609.02 641.047 1616.44 627.807 1628.72 616.764 C 1641.51 605.256 1658.03 597.501 1675.55 598.585 C 1684.14 599.116 1694.28 601.739 1700.11 608.557 C 1703.6 612.639 1705.14 618.382 1704.55 623.679 C 1703.28 635.172 1693.22 644.331 1684.56 651.048 C 1675.04 658.437 1657.26 670.719 1644.95 671.572 C 1639.34 671.961 1632.45 670.342 1626.83 669.637 C 1625.06 671.477 1624.57 673.05 1624.17 675.59 C 1623.53 679.64 1622.96 686.326 1625.86 689.687 C 1641.12 707.399 1716.43 661.533 1720.63 662.073 C 1722.44 665.564 1724.12 669.668 1722.98 673.657 C 1722.94 673.79 1722.89 673.919 1722.85 674.051 C 1722.97 675.191 1723.24 675.528 1722.58 676.537 C 1717.73 684.035 1671.87 706.711 1661.86 710.827 C 1654.85 713.712 1647.58 716.192 1640.07 717.423 C 1630.71 718.96 1618.26 718.658 1610.32 712.76 C 1597.84 703.492 1599.15 689.701 1597.14 676.127 Z M 1633.52 654.175 L 1634.5 654.574 L 1636.2 653.409 C 1647 650.559 1665.91 639.053 1671.81 629.357 C 1672.33 628.497 1672.63 627.659 1672.83 626.681 L 1671.93 624.986 C 1670.11 624.902 1668.64 625.049 1666.87 625.499 C 1655.45 632.958 1638.64 640.428 1633.52 654.175 Z"></path>
  <path fill="#FDFDFD"
    d="M 1045.02 588.428 C 1045.68 588.259 1045.9 588.176 1046.53 588.099 C 1050.01 587.678 1055.63 589.001 1058.36 591.237 C 1061.26 593.607 1062.31 597.453 1062.49 601.044 C 1062.96 610.052 1056.82 633.112 1050.78 639.953 C 1066.74 632.849 1077.09 606.97 1089.93 601.663 C 1093.02 600.384 1097.22 600.523 1100.28 601.942 C 1103.99 603.666 1106.29 607.179 1107.49 610.981 C 1110.96 621.991 1108.76 645.11 1103.59 655.084 C 1119.45 647.448 1139.7 603.66 1158.16 599.581 C 1162.1 598.709 1165.81 599.53 1169.18 601.707 C 1172.47 603.834 1175.87 607.003 1177.08 610.859 C 1181.35 624.551 1173.31 659.701 1177.45 678.715 C 1178.03 681.34 1178.15 683.943 1180.46 685.421 C 1189.45 683.525 1209.32 665.406 1215.17 658.354 C 1220.35 652.11 1224.2 644.641 1229.1 638.147 C 1243.97 618.447 1265.63 598.878 1289.54 591.479 C 1292.8 592.079 1295.94 592.801 1298.91 594.316 C 1305.14 597.491 1314.8 603.885 1316.62 610.948 C 1318.9 619.83 1309.82 618.76 1306.95 624.007 C 1307.66 627.137 1310.86 628.021 1312.63 630.442 C 1313.65 631.837 1313.8 632.689 1313.69 634.365 C 1313.15 642.662 1310.79 651.032 1309.15 659.193 C 1306.77 671.087 1305.02 682.676 1304.21 694.793 C 1303.83 700.553 1303.54 706.045 1304.61 711.769 C 1305.16 714.755 1307.98 719.557 1307.53 722.201 C 1304.96 723.873 1301.56 723.487 1298.61 723.501 C 1295.5 722.929 1292.11 721.923 1289.3 720.491 C 1274.71 713.07 1281.92 699.675 1277.64 687.945 C 1277.56 687.724 1277.47 687.507 1277.39 687.288 C 1277.32 688.071 1277.2 688.804 1276.99 689.565 C 1275.14 696.172 1266.1 703.834 1260.29 706.698 C 1251.24 711.168 1241.67 712.153 1232.09 708.701 C 1210.43 700.898 1216.4 692.475 1209.57 678.207 C 1209.47 678.017 1209.37 677.831 1209.28 677.643 C 1209.19 677.929 1209.13 678.223 1209.02 678.501 C 1206.08 685.786 1183.81 699.384 1176.79 702.455 C 1172.31 704.418 1167.2 705.325 1162.56 703.359 C 1158.43 701.608 1155.32 697.175 1153.27 693.381 C 1140.68 670.168 1152.11 641.719 1147.55 630.765 C 1147.48 630.602 1147.4 630.446 1147.32 630.287 C 1146.15 634.798 1101.06 692.91 1097.16 696.212 C 1095.04 698.004 1093.16 698.983 1090.3 698.693 C 1074.94 691.956 1086.83 645.615 1082.23 635.418 C 1082.14 635.236 1082.05 635.063 1081.96 634.885 C 1081.3 642.451 1062.73 665.848 1058.03 674.594 C 1052.44 684.997 1049.07 698.203 1042.25 707.694 C 1040.37 710.319 1037.96 712.695 1034.59 713.086 C 1031.02 713.5 1027.61 711.435 1025.02 709.186 C 1020.02 704.848 1016.77 699.428 1015.78 692.857 C 1012.6 671.791 1030.78 629.834 1038.67 609.603 C 1040.83 604.063 1045.68 594.836 1045.09 588.969 C 1045.08 588.788 1045.04 588.608 1045.02 588.428 Z M 1289.64 617.935 C 1277.42 631.756 1238.05 663.174 1238.43 681.568 C 1238.49 684.399 1239.15 685.056 1240.93 687.073 C 1243.25 687.538 1244.53 687.57 1246.66 686.145 C 1247.34 685.688 1247.88 684.889 1248.33 684.212 C 1268.63 675.596 1285.03 631.616 1296.56 623.838 C 1298.63 622.443 1301.69 622.668 1304.09 622.714 C 1302.4 620.158 1296.68 617.678 1293.55 617.173 C 1292.39 616.986 1291.15 617.248 1290.02 617.496 C 1289.89 617.643 1289.77 617.79 1289.64 617.935 Z"></path>
  <path fill="#FDFDFD"
    d="M845.474 274.169C851.243 274.044 857.309 275.137 862.412 277.891C869.8 281.877 874.067 288.486 876.249 296.461C886.994 335.734 858.854 412.521 839.281 447.06C831.599 460.616 819.752 477.783 803.824 482C796.207 484.017 788.221 482.606 781.473 478.633C752.046 461.31 731.306 378.782 722.652 346.646Q709.05 388.479 697.598 430.951C693.51 445.81 689.905 466.74 682.838 480.251C682.272 481.332 681.382 482.492 680.162 482.821C672.941 484.77 663.192 479.807 656.924 476.407C654.389 474.655 651.676 472.678 649.753 470.254C645.675 465.115 645.44 459.946 646.183 453.649C649.474 425.763 694.368 293.734 712.998 279.68C715.356 277.902 718.209 277.822 721.02 278.261C729.076 279.52 737.669 284.065 742.034 291.103C747.789 300.381 749.085 314.545 751.452 325.193C757.232 351.196 769.917 414.535 784.127 433.474C786.513 436.653 789.289 439.042 793.294 439.668C795.845 439.298 797.488 438.555 799.372 436.823C819.304 418.499 836.98 339.456 840.118 310.672C841.183 300.902 839.527 286.428 840.664 278.98C841.068 276.334 843.439 275.469 845.474 274.169Z"></path>
  <path fill="#FDFDFD"
    d="M 424.032 524.441 C 448.983 523.784 487.423 525.489 507.01 542.714 C 514.65 549.433 519.562 558.747 520.168 568.956 C 521.281 587.702 509.071 610.131 496.973 623.79 C 466.138 658.605 410.222 678.641 364.812 681.34 C 358.297 694.594 355.583 715.463 342.367 723.267 C 335.951 725.539 328.648 727.369 321.845 725.75 C 318.842 725.035 315.957 723.122 314.52 720.329 C 308.259 708.156 344.726 631.145 350.566 616.132 C 357.047 599.473 362.583 582.353 368.401 565.449 C 355.034 567.409 341.98 571.319 328.981 574.935 C 321.488 570.099 313.788 562.091 308.923 554.635 L 309.464 554.037 C 331.452 530.134 392.959 525.7 424.032 524.441 Z M 402.458 561.024 C 397.544 590.911 388.085 619.349 377.678 647.718 C 390.172 645.418 402.257 642.631 414.249 638.347 C 439.015 628.433 480.011 605.05 491.35 579.498 C 492.998 575.786 493.927 571.655 492.34 567.757 C 490.74 563.83 486.737 561.558 482.967 560.108 C 472.278 555.998 459.206 555.878 447.929 556.432 C 432.647 557.127 417.611 559.007 402.458 561.024 Z"></path>
  <path fill="#FDFDFD"
    d="M 1337.69 273.497 C 1337.93 273.478 1338.17 273.455 1338.41 273.439 C 1344.76 273.012 1355.24 275.641 1359.96 279.933 C 1363.15 282.824 1364.85 286.555 1364.92 290.854 C 1365.08 301.154 1355.16 321.266 1348.06 328.697 C 1367.027 327.403 1386.007 326.344 1405 325.52 C 1404.97 325.728 1404.94 325.936 1404.93 326.145 C 1404.85 327.09 1404.79 328.001 1404.55 328.924 C 1403.02 334.895 1395.16 341.492 1390.08 344.504 C 1373.29 349.782 1352.14 349.893 1334.57 351.426 C 1336.06 362.954 1298.52 408.974 1308.09 437.288 C 1309.54 441.592 1311.75 445.597 1315.98 447.629 C 1329.67 454.198 1354.62 440.066 1365.54 432.039 C 1370.37 428.489 1376.33 421.593 1382 419.925 C 1383.52 419.478 1383.79 419.898 1385.11 420.603 C 1385.27 421.021 1385.35 421.189 1385.46 421.661 C 1387.06 428.311 1379.85 440.622 1376.54 446.374 C 1367.35 462.345 1353.21 478.057 1334.77 482.867 C 1320.82 486.509 1303.73 483.617 1291.35 476.352 C 1273.08 465.629 1269.82 449.436 1270.21 429.788 C 1270.3 425.159 1270.92 419.973 1269.6 415.51 C 1269.53 415.28 1269.46 415.052 1269.39 414.823 C 1269.2 415.751 1269.05 416.342 1268.44 417.096 C 1252.56 436.794 1200.62 475.157 1176.55 478.231 C 1153.8 481.136 1135.84 467.876 1121.2 452.188 C 1117.18 447.875 1113.6 442.437 1108.87 438.918 C 1108.7 438.791 1108.52 438.671 1108.35 438.548 C 1107.23 442.549 1075.52 470.805 1069.87 476.858 C 1066.41 480.564 1061.5 486.319 1055.95 486.164 C 1053.05 486.082 1051.35 484.507 1049.45 482.585 C 1044.71 465.564 1092.89 435.826 1098 424.476 C 1098.07 424.338 1098.12 424.195 1098.17 424.054 C 1098.38 418.361 1088.63 403.114 1084.76 398.692 C 1084.73 398.833 1084.7 398.979 1084.65 399.116 C 1080.82 408.903 1030.45 447.94 1018.95 455.745 C 1010.537 461.466 1001.727 466.494 992.522 470.831 C 970.445 481.226 942.832 488.984 918.935 480.134 C 907.446 475.88 897.224 467.327 892.17 456.032 C 884.452 438.783 889.11 419.679 895.505 402.881 C 896.918 399.603 898.466 396.39 900.149 393.243 C 901.832 390.096 903.644 387.024 905.585 384.029 C 907.526 381.034 909.59 378.126 911.776 375.304 C 913.962 372.483 916.263 369.758 918.678 367.13 C 935.411 349.026 961.008 331.249 986.537 330.431 C 998.649 330.043 1010.93 334.38 1019.68 342.883 C 1025.15 348.208 1028.89 355.117 1028.8 362.892 C 1028.68 374.537 1020.42 385.163 1012.49 393.045 C 988.663 416.724 956.968 425.991 923.963 425.995 C 923.653 431.861 923.094 438.013 926.092 443.299 C 928.794 448.064 933.148 451.057 938.385 452.489 C 961.217 458.735 997.57 442.176 1017.04 431.365 C 1028.49 425.007 1074.85 394.517 1078.14 382.979 C 1079.04 379.348 1077.32 374.755 1076.7 371.065 C 1074.85 360.124 1072.46 344.647 1080.04 335.194 C 1080.99 334.017 1082.31 333.228 1083.8 333.104 C 1088.3 332.73 1093.34 337.314 1096.57 340.167 C 1098.543 341.888 1100.39 343.733 1102.11 345.702 C 1103.837 347.671 1105.423 349.745 1106.87 351.925 C 1111.45 358.872 1127.34 389.709 1127.81 396.952 C 1134.25 394.04 1192.52 347.128 1200.23 339.906 C 1203.72 336.646 1215.17 322.066 1217.51 321.305 C 1221.18 322.451 1225.32 324.364 1227.33 327.836 C 1229.09 330.875 1229.08 334.1 1228.08 337.361 C 1222.97 354.04 1159.22 410.204 1142.61 419.254 C 1147.52 421.815 1151.41 427.539 1155.66 431.18 C 1163.19 437.618 1172.1 441.053 1182.09 440.175 C 1214.08 437.363 1261.86 403.131 1282.42 378.607 C 1286.36 373.908 1292.53 363.951 1292.97 357.829 C 1286.79 358.056 1280.37 358.568 1274.75 355.466 C 1269.37 352.497 1265.57 347.822 1263.88 341.891 C 1262.61 337.418 1262.6 333.297 1264.85 329.164 C 1265.52 328.643 1266.47 327.671 1267.21 327.337 C 1269.97 326.099 1302.79 329.895 1309.25 329.915 C 1320.19 322.205 1330.17 281.487 1337.69 273.497 Z M 932.97 404.172 C 932.525 405.102 932.363 405.979 932.324 406.996 C 933.83 407.551 934.731 407.171 936.18 406.711 C 950.064 401.45 993.084 383.935 998.388 370.125 C 998.86 368.897 998.517 368.097 998.299 366.848 C 995.929 364.668 993.907 363.493 990.607 363.099 C 974.487 367.491 940.329 388.808 932.97 404.172 Z"></path>
</svg>